# MagicaVoxel @ Ephtracy

# group
o 

# material
mtllib Companion-bot_left_arm.mtl
usemtl palette

# normals
vn -1 0 0
vn 1 0 0
vn 0 0 1
vn 0 0 -1
vn 0 -1 0
vn 0 1 0

# texcoords
vt 0.0175781 0.5
vt 0.0214844 0.5
vt 0.0605469 0.5
vt 0.306641 0.5
vt 0.431641 0.5
vt 0.595703 0.5
vt 0.658203 0.5
vt 0.662109 0.5

# verts
v 0.6 1.8 0.5
v 0.6 1.8 0.4
v 0.6 1.8 0.3
v 0.6 1.8 0.2
v 0.6 1.9 0.6
v 0.6 1.9 0.5
v 0.6 1.9 0.4
v 0.6 1.9 0.3
v 0.6 1.9 0.2
v 0.6 1.9 0.1
v 0.6 2 0.6
v 0.6 2 0.5
v 0.6 2 0.4
v 0.6 2 0.3
v 0.6 2 0.2
v 0.6 2 0.1
v 0.6 2.1 0.6
v 0.6 2.1 0.5
v 0.6 2.1 0.4
v 0.6 2.1 0.2
v 0.6 2.2 0.4
v 0.6 2.2 0.2
v 0.6 2.3 0.4
v 0.6 2.3 0.2
v 0.6 3.2 0.4
v 0.6 3.2 0.2
v 0.7 1.7 0.5
v 0.7 1.7 0.4
v 0.7 1.7 0.3
v 0.7 1.7 0.2
v 0.7 1.8 0.5
v 0.7 1.8 0.4
v 0.7 1.8 0.3
v 0.7 1.8 0.2
v 0.7 1.8 0.1
v 0.7 1.9 0.4
v 0.7 1.9 0.3
v 0.7 1.9 0.2
v 0.7 1.9 0.1
v 0.7 2.2 0.5
v 0.7 2.2 0.4
v 0.7 2.2 0.2
v 0.7 2.2 0.1
v 0.7 2.3 0.4
v 0.7 2.3 0.2
v 0.7 3.1 0.2
v 0.7 3.1 0.1
v 0.7 3.2 0.5
v 0.7 3.2 0.4
v 0.8 1.9 0.5
v 0.8 1.9 0.4
v 0.8 1.9 0.3
v 0.8 1.9 0.2
v 0.8 1.9 0.1
v 0.8 2 0.5
v 0.8 2 0.4
v 0.8 2 0.3
v 0.8 2 0.2
v 0.8 2.1 0.5
v 0.8 2.1 0.4
v 0.8 2.1 0.3
v 0.8 2.1 0.2
v 0.8 2.1 0.1
v 0.8 2.4 0.6
v 0.8 2.4 0.5
v 0.8 2.9 0.6
v 0.8 2.9 0.5
v 0.7 1.9 0.6
v 0.7 1.9 0.5
v 0.7 1.9 0.4
v 0.7 1.9 0.3
v 0.7 1.9 0.2
v 0.7 1.9 0.1
v 0.7 2 0.6
v 0.7 2 0.5
v 0.7 2 0.4
v 0.7 2 0.3
v 0.7 2 0.2
v 0.7 2 0.1
v 0.8 1.7 0.5
v 0.8 1.7 0.4
v 0.8 1.7 0.3
v 0.8 1.7 0.2
v 0.8 1.8 0.5
v 0.8 1.8 0.4
v 0.8 1.8 0.3
v 0.8 1.8 0.2
v 0.8 1.8 0.1
v 0.8 1.9 0.4
v 0.8 1.9 0.3
v 0.8 1.9 0.2
v 0.8 1.9 0.1
v 0.8 2.1 0.4
v 0.8 2.1 0.3
v 0.8 2.1 0.2
v 0.8 2.2 0.4
v 0.8 2.2 0.2
v 0.8 3 0.4
v 0.8 3 0.3
v 0.8 3.1 0.4
v 0.8 3.1 0.3
v 0.9 1.8 0.5
v 0.9 1.8 0.4
v 0.9 1.8 0.3
v 0.9 1.8 0.2
v 0.9 1.9 0.5
v 0.9 1.9 0.4
v 0.9 1.9 0.3
v 0.9 1.9 0.2
v 0.9 1.9 0.1
v 0.9 2 0.6
v 0.9 2 0.5
v 0.9 2 0.4
v 0.9 2 0.3
v 0.9 2 0.2
v 0.9 2.1 0.6
v 0.9 2.1 0.4
v 0.9 2.1 0.3
v 0.9 2.1 0.1
v 0.9 2.2 0.5
v 0.9 2.2 0.1
v 0.9 2.3 0.5
v 0.9 2.3 0.1
v 0.9 2.4 0.6
v 0.9 2.4 0.5
v 0.9 2.5 0.5
v 0.9 2.6 0.5
v 0.9 2.7 0.5
v 0.9 2.8 0.5
v 0.9 2.9 0.6
v 0.9 2.9 0.5
v 0.9 3 0.5
v 0.9 3 0.4
v 0.9 3 0.2
v 0.9 3 0.1
v 0.9 3.1 0.4
v 0.9 3.1 0.3
v 0.9 3.1 0.2
v 0.9 3.1 0.1
v 0.9 3.2 0.5
v 0.9 3.2 0.2
v 1 2.3 0.5
v 1 2.3 0.1
v 1 2.4 0.5
v 1 2.4 0.4
v 1 2.4 0.3
v 1 2.4 0.2
v 1 2.5 0.5
v 1 2.5 0.4
v 1 2.6 0.5
v 1 2.6 0.4
v 1 2.7 0.5
v 1 2.7 0.4
v 1 2.8 0.5
v 1 2.8 0.4
v 1 2.9 0.5
v 1 2.9 0.4
v 1 2.9 0.3
v 1 2.9 0.2
v 1 3 0.5
v 1 3 0.3
v 1 3 0.2
v 1 3 0.1
v 1.1 2.9 0.3
v 1.1 2.9 0.2
v 1.1 3.1 0.3
v 1.1 3.1 0.2
v 1.2 2.4 0.3
v 1.2 2.4 0.2
v 1.2 2.9 0.3
v 1.2 2.9 0.2
v 0.6 1.9 0.6
v 0.6 2 0.6
v 0.6 2.1 0.6
v 0.7 1.9 0.6
v 0.7 2 0.6
v 0.8 2.4 0.6
v 0.8 2.9 0.6
v 0.9 2 0.6
v 0.9 2.1 0.6
v 0.9 2.4 0.6
v 0.9 2.9 0.6
v 0.6 1.8 0.5
v 0.6 1.9 0.5
v 0.7 1.7 0.5
v 0.7 1.8 0.5
v 0.7 1.9 0.5
v 0.7 2.2 0.5
v 0.7 3.2 0.5
v 0.8 1.7 0.5
v 0.8 1.8 0.5
v 0.8 1.9 0.5
v 0.8 2 0.5
v 0.8 2.4 0.5
v 0.8 2.9 0.5
v 0.9 1.8 0.5
v 0.9 1.9 0.5
v 0.9 2 0.5
v 0.9 2.2 0.5
v 0.9 2.3 0.5
v 0.9 2.4 0.5
v 0.9 2.5 0.5
v 0.9 2.6 0.5
v 0.9 2.7 0.5
v 0.9 2.8 0.5
v 0.9 2.9 0.5
v 0.9 3 0.5
v 0.9 3.2 0.5
v 1 2.3 0.5
v 1 2.4 0.5
v 1 2.5 0.5
v 1 2.6 0.5
v 1 2.7 0.5
v 1 2.8 0.5
v 1 2.9 0.5
v 1 3 0.5
v 0.6 2.1 0.4
v 0.6 2.2 0.4
v 0.6 2.3 0.4
v 0.6 3.2 0.4
v 0.7 2.2 0.4
v 0.7 2.3 0.4
v 0.7 3.2 0.4
v 0.8 2.1 0.4
v 0.8 2.2 0.4
v 0.6 1.8 0.3
v 0.6 1.9 0.3
v 0.7 1.7 0.3
v 0.7 1.8 0.3
v 0.7 1.9 0.3
v 0.8 1.7 0.3
v 0.8 1.8 0.3
v 0.8 1.9 0.3
v 0.8 3 0.3
v 0.8 3.1 0.3
v 0.9 1.8 0.3
v 0.9 1.9 0.3
v 0.9 3.1 0.3
v 1 2.4 0.3
v 1 2.9 0.3
v 1 3 0.3
v 1.1 2.9 0.3
v 1.1 3.1 0.3
v 1.2 2.4 0.3
v 1.2 2.9 0.3
v 0.6 2 0.5
v 0.6 2.1 0.5
v 0.7 2 0.5
v 0.8 2 0.5
v 0.8 2.1 0.5
v 0.6 1.8 0.4
v 0.6 1.9 0.4
v 0.7 1.7 0.4
v 0.7 1.8 0.4
v 0.7 1.9 0.4
v 0.8 1.7 0.4
v 0.8 1.8 0.4
v 0.8 1.9 0.4
v 0.8 3 0.4
v 0.8 3.1 0.4
v 0.9 1.8 0.4
v 0.9 1.9 0.4
v 0.9 3 0.4
v 0.9 3.1 0.4
v 0.6 1.8 0.2
v 0.6 1.9 0.2
v 0.6 2.1 0.2
v 0.6 2.2 0.2
v 0.6 2.3 0.2
v 0.6 3.2 0.2
v 0.7 1.7 0.2
v 0.7 1.8 0.2
v 0.7 1.9 0.2
v 0.7 2.2 0.2
v 0.7 2.3 0.2
v 0.7 3.1 0.2
v 0.7 3.2 0.2
v 0.8 1.7 0.2
v 0.8 1.8 0.2
v 0.8 1.9 0.2
v 0.8 2.1 0.2
v 0.8 2.2 0.2
v 0.8 3.1 0.2
v 0.8 3.2 0.2
v 0.9 1.8 0.2
v 0.9 1.9 0.2
v 0.9 3 0.2
v 0.9 3.1 0.2
v 0.9 3.2 0.2
v 1 2.4 0.2
v 1 2.9 0.2
v 1 3 0.2
v 1.1 2.9 0.2
v 1.1 3.1 0.2
v 1.2 2.4 0.2
v 1.2 2.9 0.2
v 0.6 1.9 0.1
v 0.6 2 0.1
v 0.7 1.8 0.1
v 0.7 1.9 0.1
v 0.7 2 0.1
v 0.7 2.2 0.1
v 0.7 3.1 0.1
v 0.8 1.8 0.1
v 0.8 1.9 0.1
v 0.8 2.1 0.1
v 0.9 1.9 0.1
v 0.9 2.1 0.1
v 0.9 2.2 0.1
v 0.9 2.3 0.1
v 0.9 3 0.1
v 0.9 3.1 0.1
v 1 2.3 0.1
v 1 3 0.1
v 0.7 1.7 0.5
v 0.8 1.7 0.5
v 0.7 1.7 0.4
v 0.8 1.7 0.4
v 0.7 1.7 0.3
v 0.8 1.7 0.3
v 0.7 1.7 0.2
v 0.8 1.7 0.2
v 0.6 1.8 0.5
v 0.7 1.8 0.5
v 0.8 1.8 0.5
v 0.9 1.8 0.5
v 0.6 1.8 0.4
v 0.7 1.8 0.4
v 0.8 1.8 0.4
v 0.9 1.8 0.4
v 0.6 1.8 0.3
v 0.7 1.8 0.3
v 0.8 1.8 0.3
v 0.9 1.8 0.3
v 0.6 1.8 0.2
v 0.7 1.8 0.2
v 0.8 1.8 0.2
v 0.9 1.8 0.2
v 0.7 1.8 0.1
v 0.8 1.8 0.1
v 0.6 1.9 0.6
v 0.7 1.9 0.6
v 0.6 1.9 0.5
v 0.7 1.9 0.5
v 0.6 1.9 0.4
v 0.7 1.9 0.4
v 0.8 1.9 0.4
v 0.9 1.9 0.4
v 0.6 1.9 0.3
v 0.7 1.9 0.3
v 0.8 1.9 0.3
v 0.9 1.9 0.3
v 0.6 1.9 0.2
v 0.7 1.9 0.2
v 0.8 1.9 0.2
v 0.9 1.9 0.2
v 0.6 1.9 0.1
v 0.7 1.9 0.1
v 0.8 1.9 0.1
v 0.9 1.9 0.1
v 0.7 2 0.6
v 0.9 2 0.6
v 0.7 2 0.5
v 0.8 2 0.5
v 0.9 2 0.5
v 0.6 2.1 0.4
v 0.8 2.1 0.4
v 0.8 2.1 0.3
v 0.6 2.1 0.2
v 0.8 2.1 0.2
v 0.7 2.2 0.5
v 0.9 2.2 0.5
v 0.7 2.2 0.4
v 0.8 2.2 0.4
v 0.7 2.2 0.2
v 0.8 2.2 0.2
v 0.7 2.2 0.1
v 0.9 2.2 0.1
v 0.9 2.3 0.5
v 1 2.3 0.5
v 0.6 2.3 0.4
v 0.7 2.3 0.4
v 0.6 2.3 0.2
v 0.7 2.3 0.2
v 0.9 2.3 0.1
v 1 2.3 0.1
v 0.8 2.4 0.6
v 0.9 2.4 0.6
v 0.8 2.4 0.5
v 0.9 2.4 0.5
v 1 2.4 0.3
v 1.2 2.4 0.3
v 1 2.4 0.2
v 1.2 2.4 0.2
v 0.8 3.1 0.4
v 0.9 3.1 0.4
v 0.8 3.1 0.3
v 0.9 3.1 0.3
v 0.7 1.9 0.5
v 0.8 1.9 0.5
v 0.7 1.9 0.4
v 0.8 1.9 0.4
v 0.7 1.9 0.3
v 0.8 1.9 0.3
v 0.7 1.9 0.2
v 0.8 1.9 0.2
v 0.7 1.9 0.1
v 0.8 1.9 0.1
v 0.6 2 0.5
v 0.7 2 0.5
v 0.6 2 0.4
v 0.7 2 0.4
v 0.6 2 0.3
v 0.7 2 0.3
v 0.6 2 0.2
v 0.7 2 0.2
v 0.6 2 0.1
v 0.7 2 0.1
v 0.6 2.1 0.6
v 0.9 2.1 0.6
v 0.6 2.1 0.5
v 0.8 2.1 0.5
v 0.8 2.1 0.4
v 0.9 2.1 0.4
v 0.8 2.1 0.3
v 0.9 2.1 0.3
v 0.8 2.1 0.2
v 0.8 2.1 0.1
v 0.9 2.1 0.1
v 0.6 2.2 0.4
v 0.7 2.2 0.4
v 0.6 2.2 0.2
v 0.7 2.2 0.2
v 0.8 2.9 0.6
v 0.9 2.9 0.6
v 0.8 2.9 0.5
v 0.9 2.9 0.5
v 1.1 2.9 0.3
v 1.2 2.9 0.3
v 1.1 2.9 0.2
v 1.2 2.9 0.2
v 0.9 3 0.5
v 1 3 0.5
v 0.8 3 0.4
v 0.9 3 0.4
v 0.8 3 0.3
v 1 3 0.3
v 0.9 3 0.2
v 1 3 0.2
v 0.9 3 0.1
v 1 3 0.1
v 0.9 3.1 0.3
v 1.1 3.1 0.3
v 0.7 3.1 0.2
v 0.8 3.1 0.2
v 0.9 3.1 0.2
v 1.1 3.1 0.2
v 0.7 3.1 0.1
v 0.9 3.1 0.1
v 0.7 3.2 0.5
v 0.9 3.2 0.5
v 0.6 3.2 0.4
v 0.7 3.2 0.4
v 0.8 3.2 0.4
v 0.6 3.2 0.2
v 0.7 3.2 0.2
v 0.8 3.2 0.2
v 0.9 3.2 0.2

# faces
f 6/6/1 2/6/1 1/6/1
f 7/6/1 2/6/1 6/6/1
f 8/6/1 4/6/1 3/6/1
f 9/6/1 4/6/1 8/6/1
f 11/6/1 6/6/1 5/6/1
f 12/5/1 7/5/1 6/5/1
f 12/6/1 6/6/1 11/6/1
f 13/6/1 8/6/1 7/6/1
f 13/5/1 7/5/1 12/5/1
f 14/5/1 9/5/1 8/5/1
f 14/6/1 8/6/1 13/6/1
f 15/6/1 10/6/1 9/6/1
f 15/5/1 9/5/1 14/5/1
f 16/6/1 10/6/1 15/6/1
f 17/5/1 12/5/1 11/5/1
f 18/5/1 12/5/1 17/5/1
f 21/4/1 20/4/1 19/4/1
f 22/4/1 20/4/1 21/4/1
f 25/4/1 24/4/1 23/4/1
f 26/4/1 24/4/1 25/4/1
f 31/5/1 28/5/1 27/5/1
f 32/5/1 28/5/1 31/5/1
f 33/5/1 30/5/1 29/5/1
f 34/5/1 30/5/1 33/5/1
f 36/5/1 33/5/1 32/5/1
f 37/5/1 33/5/1 36/5/1
f 38/5/1 35/5/1 34/5/1
f 39/5/1 35/5/1 38/5/1
f 44/4/1 41/4/1 40/4/1
f 44/4/1 43/4/1 42/4/1
f 44/4/1 42/4/1 41/4/1
f 45/4/1 43/4/1 44/4/1
f 46/4/1 43/4/1 45/4/1
f 47/4/1 43/4/1 46/4/1
f 48/4/1 44/4/1 40/4/1
f 49/4/1 44/4/1 48/4/1
f 55/7/1 51/7/1 50/7/1
f 56/5/1 52/5/1 51/5/1
f 56/7/1 51/7/1 55/7/1
f 57/7/1 53/7/1 52/7/1
f 57/5/1 52/5/1 56/5/1
f 58/5/1 54/5/1 53/5/1
f 58/7/1 53/7/1 57/7/1
f 59/5/1 56/5/1 55/5/1
f 60/1/1 57/1/1 56/1/1
f 60/5/1 56/5/1 59/5/1
f 61/5/1 58/5/1 57/5/1
f 61/1/1 57/1/1 60/1/1
f 62/5/1 54/5/1 58/5/1
f 62/5/1 58/5/1 61/5/1
f 63/5/1 54/5/1 62/5/1
f 66/4/1 65/4/1 64/4/1
f 67/4/1 65/4/1 66/4/1
f 68/6/2 69/6/2 74/6/2
f 69/5/2 70/5/2 75/5/2
f 74/6/2 69/6/2 75/6/2
f 70/6/2 71/6/2 76/6/2
f 75/5/2 70/5/2 76/5/2
f 71/5/2 72/5/2 77/5/2
f 76/6/2 71/6/2 77/6/2
f 72/6/2 73/6/2 78/6/2
f 77/5/2 72/5/2 78/5/2
f 78/6/2 73/6/2 79/6/2
f 80/5/2 81/5/2 84/5/2
f 84/5/2 81/5/2 85/5/2
f 82/5/2 83/5/2 86/5/2
f 86/5/2 83/5/2 87/5/2
f 85/5/2 86/5/2 89/5/2
f 89/5/2 86/5/2 90/5/2
f 87/5/2 88/5/2 91/5/2
f 91/5/2 88/5/2 92/5/2
f 93/4/2 94/4/2 96/4/2
f 94/4/2 95/4/2 96/4/2
f 96/4/2 95/4/2 97/4/2
f 98/4/2 99/4/2 100/4/2
f 100/4/2 99/4/2 101/4/2
f 102/5/2 103/5/2 106/5/2
f 106/5/2 103/5/2 107/5/2
f 104/5/2 105/5/2 108/5/2
f 108/5/2 105/5/2 109/5/2
f 106/7/2 107/7/2 112/7/2
f 107/5/2 108/5/2 113/5/2
f 112/7/2 107/7/2 113/7/2
f 108/7/2 109/7/2 114/7/2
f 113/5/2 108/5/2 114/5/2
f 109/5/2 110/5/2 115/5/2
f 114/7/2 109/7/2 115/7/2
f 111/5/2 112/5/2 116/5/2
f 112/5/2 113/5/2 116/5/2
f 113/1/2 114/1/2 117/1/2
f 116/5/2 113/5/2 117/5/2
f 114/5/2 115/5/2 118/5/2
f 117/1/2 114/1/2 118/1/2
f 115/5/2 110/5/2 119/5/2
f 118/5/2 115/5/2 119/5/2
f 120/4/2 121/4/2 122/4/2
f 122/4/2 121/4/2 123/4/2
f 124/4/2 125/4/2 126/4/2
f 124/4/2 126/4/2 127/4/2
f 124/4/2 127/4/2 128/4/2
f 124/4/2 128/4/2 129/4/2
f 124/4/2 129/4/2 130/4/2
f 130/4/2 129/4/2 131/4/2
f 132/4/2 133/4/2 136/4/2
f 134/4/2 135/4/2 138/4/2
f 138/4/2 135/4/2 139/4/2
f 136/4/2 137/4/2 140/4/2
f 132/4/2 136/4/2 140/4/2
f 137/4/2 138/4/2 140/4/2
f 140/4/2 138/4/2 141/4/2
f 142/4/2 143/4/2 144/4/2
f 144/4/2 143/4/2 145/4/2
f 145/4/2 143/4/2 146/4/2
f 146/4/2 143/4/2 147/4/2
f 144/1/2 145/1/2 148/1/2
f 145/4/2 146/4/2 149/4/2
f 148/1/2 145/1/2 149/1/2
f 148/4/2 149/4/2 150/4/2
f 149/4/2 146/4/2 151/4/2
f 150/4/2 149/4/2 151/4/2
f 150/1/2 151/1/2 152/1/2
f 151/4/2 146/4/2 153/4/2
f 152/1/2 151/1/2 153/1/2
f 152/4/2 153/4/2 154/4/2
f 153/4/2 146/4/2 155/4/2
f 154/4/2 153/4/2 155/4/2
f 154/1/2 155/1/2 156/1/2
f 155/4/2 146/4/2 157/4/2
f 156/1/2 155/1/2 157/1/2
f 157/4/2 146/4/2 158/4/2
f 147/4/2 143/4/2 159/4/2
f 157/4/2 158/4/2 160/4/2
f 156/4/2 157/4/2 160/4/2
f 160/4/2 158/4/2 161/4/2
f 159/4/2 143/4/2 162/4/2
f 162/4/2 143/4/2 163/4/2
f 164/8/2 165/8/2 166/8/2
f 166/8/2 165/8/2 167/8/2
f 168/3/2 169/3/2 170/3/2
f 170/3/2 169/3/2 171/3/2
f 175/6/3 173/6/3 172/6/3
f 176/5/3 174/5/3 173/5/3
f 176/6/3 173/6/3 175/6/3
f 179/5/3 174/5/3 176/5/3
f 180/5/3 174/5/3 179/5/3
f 181/4/3 178/4/3 177/4/3
f 182/4/3 178/4/3 181/4/3
f 186/6/3 184/6/3 183/6/3
f 187/6/3 184/6/3 186/6/3
f 190/5/3 186/5/3 185/5/3
f 190/5/3 187/5/3 186/5/3
f 191/5/3 187/5/3 190/5/3
f 192/5/3 187/5/3 191/5/3
f 194/4/3 189/4/3 188/4/3
f 195/4/3 189/4/3 194/4/3
f 196/5/3 192/5/3 191/5/3
f 197/7/3 193/7/3 192/7/3
f 197/5/3 192/5/3 196/5/3
f 198/7/3 193/7/3 197/7/3
f 199/4/3 194/4/3 188/4/3
f 200/4/3 194/4/3 199/4/3
f 201/4/3 194/4/3 200/4/3
f 206/4/3 189/4/3 195/4/3
f 207/4/3 189/4/3 206/4/3
f 208/4/3 189/4/3 207/4/3
f 209/4/3 201/4/3 200/4/3
f 210/1/3 202/1/3 201/1/3
f 210/4/3 201/4/3 209/4/3
f 211/4/3 203/4/3 202/4/3
f 211/1/3 202/1/3 210/1/3
f 212/1/3 204/1/3 203/1/3
f 212/4/3 203/4/3 211/4/3
f 213/4/3 205/4/3 204/4/3
f 213/1/3 204/1/3 212/1/3
f 214/1/3 206/1/3 205/1/3
f 214/4/3 205/4/3 213/4/3
f 215/4/3 207/4/3 206/4/3
f 215/1/3 206/1/3 214/1/3
f 216/4/3 207/4/3 215/4/3
f 221/4/3 218/4/3 217/4/3
f 222/4/3 220/4/3 219/4/3
f 223/4/3 220/4/3 222/4/3
f 224/4/3 221/4/3 217/4/3
f 225/4/3 221/4/3 224/4/3
f 229/6/3 227/6/3 226/6/3
f 230/6/3 227/6/3 229/6/3
f 231/5/3 229/5/3 228/5/3
f 232/5/3 229/5/3 231/5/3
f 236/5/3 233/5/3 232/5/3
f 237/5/3 233/5/3 236/5/3
f 238/8/3 235/8/3 234/8/3
f 241/8/3 238/8/3 234/8/3
f 242/3/3 240/3/3 239/3/3
f 242/8/3 241/8/3 240/8/3
f 243/8/3 238/8/3 241/8/3
f 243/8/3 241/8/3 242/8/3
f 244/3/3 242/3/3 239/3/3
f 245/3/3 242/3/3 244/3/3
f 246/5/4 247/5/4 248/5/4
f 248/5/4 247/5/4 249/5/4
f 249/5/4 247/5/4 250/5/4
f 251/6/4 252/6/4 254/6/4
f 254/6/4 252/6/4 255/6/4
f 253/5/4 254/5/4 256/5/4
f 256/5/4 254/5/4 257/5/4
f 257/5/4 258/5/4 261/5/4
f 261/5/4 258/5/4 262/5/4
f 259/4/4 260/4/4 263/4/4
f 263/4/4 260/4/4 264/4/4
f 265/6/4 266/6/4 272/6/4
f 272/6/4 266/6/4 273/6/4
f 267/4/4 268/4/4 274/4/4
f 269/4/4 270/4/4 275/4/4
f 275/4/4 270/4/4 276/4/4
f 276/4/4 270/4/4 277/4/4
f 271/5/4 272/5/4 278/5/4
f 278/5/4 272/5/4 279/5/4
f 267/4/4 274/4/4 281/4/4
f 281/4/4 274/4/4 282/4/4
f 276/6/4 277/6/4 283/6/4
f 283/6/4 277/6/4 284/6/4
f 279/5/4 280/5/4 285/5/4
f 285/5/4 280/5/4 286/5/4
f 283/4/4 284/4/4 288/4/4
f 288/4/4 284/4/4 289/4/4
f 287/8/4 288/8/4 292/8/4
f 290/3/4 291/3/4 293/3/4
f 291/8/4 292/8/4 293/8/4
f 292/8/4 288/8/4 294/8/4
f 293/8/4 292/8/4 294/8/4
f 290/3/4 293/3/4 295/3/4
f 295/3/4 293/3/4 296/3/4
f 297/6/4 298/6/4 300/6/4
f 300/6/4 298/6/4 301/6/4
f 299/5/4 300/5/4 304/5/4
f 304/5/4 300/5/4 305/5/4
f 305/5/4 306/5/4 307/5/4
f 307/5/4 306/5/4 308/5/4
f 302/4/4 303/4/4 309/4/4
f 309/4/4 303/4/4 310/4/4
f 310/4/4 303/4/4 311/4/4
f 311/4/4 303/4/4 312/4/4
f 310/4/4 311/4/4 313/4/4
f 313/4/4 311/4/4 314/4/4
f 317/5/5 316/5/5 315/5/5
f 318/5/5 316/5/5 317/5/5
f 321/5/5 320/5/5 319/5/5
f 322/5/5 320/5/5 321/5/5
f 327/6/5 324/6/5 323/6/5
f 328/6/5 324/6/5 327/6/5
f 329/5/5 326/5/5 325/5/5
f 330/5/5 326/5/5 329/5/5
f 332/5/5 329/5/5 328/5/5
f 333/5/5 329/5/5 332/5/5
f 335/6/5 332/6/5 331/6/5
f 336/6/5 332/6/5 335/6/5
f 337/5/5 334/5/5 333/5/5
f 338/5/5 334/5/5 337/5/5
f 339/5/5 337/5/5 336/5/5
f 340/5/5 337/5/5 339/5/5
f 343/6/5 342/6/5 341/6/5
f 344/6/5 342/6/5 343/6/5
f 349/6/5 346/6/5 345/6/5
f 350/6/5 346/6/5 349/6/5
f 351/5/5 348/5/5 347/5/5
f 352/5/5 348/5/5 351/5/5
f 357/6/5 354/6/5 353/6/5
f 358/6/5 354/6/5 357/6/5
f 359/5/5 356/5/5 355/5/5
f 360/5/5 356/5/5 359/5/5
f 363/5/5 362/5/5 361/5/5
f 364/5/5 362/5/5 363/5/5
f 365/5/5 362/5/5 364/5/5
f 368/4/5 367/4/5 366/4/5
f 369/4/5 368/4/5 366/4/5
f 370/4/5 368/4/5 369/4/5
f 373/4/5 372/4/5 371/4/5
f 374/4/5 372/4/5 373/4/5
f 376/4/5 372/4/5 374/4/5
f 377/4/5 376/4/5 375/4/5
f 378/4/5 372/4/5 376/4/5
f 378/4/5 376/4/5 377/4/5
f 383/4/5 382/4/5 381/4/5
f 384/4/5 382/4/5 383/4/5
f 385/4/5 380/4/5 379/4/5
f 386/4/5 380/4/5 385/4/5
f 389/4/5 388/4/5 387/4/5
f 390/4/5 388/4/5 389/4/5
f 393/3/5 392/3/5 391/3/5
f 394/3/5 392/3/5 393/3/5
f 397/4/5 396/4/5 395/4/5
f 398/4/5 396/4/5 397/4/5
f 399/5/6 400/5/6 401/5/6
f 401/5/6 400/5/6 402/5/6
f 401/5/6 402/5/6 403/5/6
f 403/5/6 402/5/6 404/5/6
f 403/5/6 404/5/6 405/5/6
f 405/5/6 404/5/6 406/5/6
f 405/5/6 406/5/6 407/5/6
f 407/5/6 406/5/6 408/5/6
f 409/5/6 410/5/6 411/5/6
f 411/5/6 410/5/6 412/5/6
f 411/6/6 412/6/6 413/6/6
f 413/6/6 412/6/6 414/6/6
f 413/5/6 414/5/6 415/5/6
f 415/5/6 414/5/6 416/5/6
f 415/6/6 416/6/6 417/6/6
f 417/6/6 416/6/6 418/6/6
f 419/5/6 420/5/6 421/5/6
f 421/5/6 420/5/6 422/5/6
f 422/5/6 420/5/6 423/5/6
f 423/5/6 420/5/6 424/5/6
f 423/1/6 424/1/6 425/1/6
f 425/1/6 424/1/6 426/1/6
f 425/5/6 426/5/6 427/5/6
f 427/5/6 426/5/6 428/5/6
f 428/5/6 426/5/6 429/5/6
f 430/4/6 431/4/6 432/4/6
f 432/4/6 431/4/6 433/4/6
f 434/4/6 435/4/6 436/4/6
f 436/4/6 435/4/6 437/4/6
f 438/3/6 439/3/6 440/3/6
f 440/3/6 439/3/6 441/3/6
f 442/4/6 443/4/6 445/4/6
f 444/4/6 445/4/6 446/4/6
f 445/4/6 443/4/6 447/4/6
f 446/4/6 445/4/6 447/4/6
f 448/4/6 449/4/6 450/4/6
f 450/4/6 449/4/6 451/4/6
f 452/8/6 453/8/6 456/8/6
f 456/8/6 453/8/6 457/8/6
f 454/4/6 455/4/6 458/4/6
f 455/4/6 456/4/6 458/4/6
f 458/4/6 456/4/6 459/4/6
f 460/4/6 461/4/6 463/4/6
f 463/4/6 461/4/6 464/4/6
f 462/4/6 463/4/6 465/4/6
f 463/6/6 464/6/6 466/6/6
f 465/4/6 463/4/6 466/4/6
f 464/4/6 461/4/6 467/4/6
f 466/6/6 464/6/6 467/6/6
f 467/4/6 461/4/6 468/4/6
